<svg width="128" height="128" viewBox="0 0 128 128" fill="none" xmlns="http://www.w3.org/2000/svg">
<rect width="128" height="128" fill="#333333"/>
<path d="M32.4473 16H20.3549C17.9498 16 16 17.9498 16 20.3549V86.1042C17.2441 84.6349 18.7131 83.3633 20.3549 82.3426C21.7011 81.5056 23.1623 80.8379 24.7098 80.3689C26.3956 79.858 28.1817 79.5805 30.0321 79.5805H32.4527L32.4473 16Z" fill="white"/>
<path d="M76.9664 16H63.4165L63.4219 79.5803H76.9722L76.9664 16Z" fill="white"/>
<path d="M102.123 20.3545C102.122 17.9494 100.173 16 97.7678 16H85.6759L85.6817 79.5805H102.128L102.123 20.3545Z" fill="white"/>
<path d="M54.7069 16H41.1569L41.1625 79.5803H54.7124L54.7069 16Z" fill="white"/>
<path d="M107.921 88.2901H45.6574C46.4944 89.6363 47.1625 91.0975 47.6313 92.6449C47.8148 93.2509 47.9663 93.8704 48.0871 94.501C48.3025 95.6245 48.4195 96.7823 48.4195 97.9677C48.4195 99.8181 48.1422 101.605 47.6313 103.29C47.1623 104.838 46.4944 106.299 45.6574 107.645C44.6367 109.287 43.3651 110.756 41.8958 112H97.7742C105.511 112 111.806 105.705 111.806 97.9679C111.806 94.2179 110.325 90.8097 107.921 88.2901Z" fill="white"/>
<path d="M39.4135 95.5853C39.145 94.5242 38.7002 93.5337 38.1134 92.6449C36.382 90.0218 33.4099 88.2901 30.0319 88.2901C28.0652 88.2901 26.2366 88.8782 24.7096 89.8862C22.0864 91.6174 20.3547 94.5897 20.3547 97.9677C20.3547 99.4891 20.7066 100.928 21.3321 102.208C22.9041 105.427 26.2086 107.645 30.0319 107.645C33.4096 107.645 36.3818 105.914 38.1134 103.29C39.1217 101.763 39.7099 99.9344 39.7099 97.9677C39.7099 97.1455 39.607 96.3473 39.4135 95.5853Z" fill="white"/>
</svg>
