<svg width="96" height="96" viewBox="0 0 96 96" fill="none" xmlns="http://www.w3.org/2000/svg">
<path d="M16.4473 0H4.35487C1.94981 0 0 1.94981 0 4.35488V70.1042C1.24406 68.6349 2.71312 67.3633 4.35487 66.3426C5.70112 65.5056 7.16231 64.8379 8.70975 64.3689C10.3956 63.858 12.1817 63.5805 14.0321 63.5805H16.4527L16.4473 0Z" fill="white"/>
<path d="M60.9664 0H47.4165L47.4219 63.5803H60.9722L60.9664 0Z" fill="white"/>
<path d="M86.1227 4.3545C86.1221 1.94944 84.1729 0 81.7678 0H69.6759L69.6817 63.5805H86.1283L86.1227 4.3545Z" fill="white"/>
<path d="M38.7069 0H25.1569L25.1625 63.5803H38.7124L38.7069 0Z" fill="white"/>
<path d="M91.9207 72.2901H29.6574C30.4944 73.6363 31.1625 75.0975 31.6313 76.6449C31.8148 77.2509 31.9663 77.8704 32.0871 78.501C32.3025 79.6245 32.4195 80.7823 32.4195 81.9677C32.4195 83.8181 32.1422 85.6046 31.6313 87.2904C31.1623 88.8379 30.4944 90.2991 29.6574 91.6453C28.6367 93.2871 27.3651 94.7561 25.8958 96.0002H81.7742C89.5112 96.0002 95.8059 89.7051 95.8059 81.9679C95.8061 78.2179 94.3249 74.8097 91.9207 72.2901Z" fill="white"/>
<path d="M23.4135 79.5853C23.145 78.5242 22.7002 77.5337 22.1134 76.6449C20.382 74.0218 17.4099 72.2901 14.0319 72.2901C12.0652 72.2901 10.2366 72.8782 8.70956 73.8862C6.08644 75.6174 4.35469 78.5897 4.35469 81.9677C4.35469 83.4891 4.70662 84.9276 5.33212 86.2084C6.90412 89.4272 10.2086 91.6453 14.0319 91.6453C17.4096 91.6453 20.3818 89.9136 22.1134 87.2904C23.1217 85.7631 23.7099 83.9344 23.7099 81.9677C23.7099 81.1455 23.607 80.3473 23.4135 79.5853Z" fill="white"/>
</svg>
